<control> default_path=Release\
<region> sample=1_C_r.wav pitch_keycenter=c1 hikey=d#1
<region> sample=1_G_r.wav pitch_keycenter=g1 lokey=e1 hikey=g#1
<region> sample=1_Bb_r.wav pitch_keycenter=a#1 lokey=a1 hikey=b1
<region> sample=2_Db_r.wav pitch_keycenter=c#2 lokey=c2 hikey=d2
<region> sample=2_F_r.wav pitch_keycenter=f2 lokey=d#2 hikey=f#2
<region> sample=2_A_r.wav pitch_keycenter=a2 lokey=g2 hikey=a#2
<region> sample=3_Db_r.wav pitch_keycenter=c#3 lokey=b2 hikey=d3
<region> sample=3_F_r.wav pitch_keycenter=f3 lokey=d#3 hikey=f#3
<region> sample=3_Ab_r.wav pitch_keycenter=g#3 lokey=g3 hikey=a3
<region> sample=4_C_r.wav pitch_keycenter=c4 lokey=a#3